# xmcd
#
# Track frame offsets: 
#        150
#        20824
#        38359
#        52560
#        68598
#        85883
#        103677
#
# Disc length: 1665 seconds
#
# Revision: 0
# Processed by: cddbd v1.5.2PL0 Copyright (c) Steve Scherf et al.
# Submitted via: ExactAudioCopy v0.99pb4
#
DISCID=47067f07
DTITLE=Jess Braun - Waveside
DYEAR=2010
DGENRE=Alternative
TTITLE0=Sometimes
TTITLE1=One Step
TTITLE2=Collide
TTITLE3=Blue Muse
TTITLE4=Transformation
TTITLE5=Change
TTITLE6=Raincloud
EXTD=
EXTT0=
EXTT1=
EXTT2=
EXTT3=
EXTT4=
EXTT5=
EXTT6=
PLAYORDER=
